<svg xmlns="http://www.w3.org/2000/svg" width="174" height="36" viewBox="0 0 113.9 23.372">
	<defs>
	<!--
		<style>
			.a-logo {
				fill:#fff;
			}
		</style>
	-->
	</defs>
	<g transform="translate(-893 -13)">
		<path class="a-logo" d="M-397.662-267.371a18.365,18.365,0,0,0-2.472.225l1.8-6.854h-4.607a3.276,3.276,0,0,0-3.258,2.472l-1.461,5.169a8.694,8.694,0,0,0,2.023-.225,10.461,10.461,0,0,1-5.843,1.685,5.472,5.472,0,0,1-1.349-.112,9.962,9.962,0,0,1-3.146-.787L-418-258.606a10.553,10.553,0,0,0,5.281,1.348,11.087,11.087,0,0,0,2.7-.337l-1.91,6.967h4.719a3.474,3.474,0,0,0,3.259-2.472l1.348-4.944a9.963,9.963,0,0,0-3.146.787,12.459,12.459,0,0,1,3.371-1.91h.112c.112,0,.112,0,.225-.112.112,0,.112,0,.225-.112.112,0,.225,0,.225-.112h.225c.112,0,.225,0,.225-.112h4.382a.413.413,0,0,1,.337.112h.225c.112,0,.225.112.337.112h.225c.112,0,.225.112.337.112s.112,0,.225.112c.112,0,.225.112.337.112a.11.11,0,0,1,.112.112c.112,0,.225.112.337.112h0l2.023-7.191a11.966,11.966,0,0,0-5.394-1.348" transform="translate(1399.169 287)" fill="#fff" />
		<path class="a-logo" d="M44.467,5.7A5.325,5.325,0,0,0,39.9,3.663a11.581,11.581,0,0,0-3.663.6,3.45,3.45,0,0,1-2.725-.283L30.435,15.837h4.548s1.4-5.556,1.61-6.317a2.443,2.443,0,0,1,2.513-2.176c.991,0,1.911.425,1.486,2.017-.106.389-1.716,6.476-1.716,6.476h4.512L45,9.75a6.063,6.063,0,0,0,.212-2.212A3.765,3.765,0,0,0,44.467,5.7ZM25.056,3.663a21.012,21.012,0,0,0-4.548.549c-.018.071-.743,2.583-.743,2.583s4.477-1.1,5.857,0c.619.478.407,1.062.23,1.628a10,10,0,0,0-1.1-.23,10.833,10.833,0,0,0-1.8-.124,11.077,11.077,0,0,0-2.318.23,8.229,8.229,0,0,0-1.964.708,4.98,4.98,0,0,0-1.522,1.221,3.777,3.777,0,0,0-.832,1.823,3.158,3.158,0,0,0,1.026,2.743,6.421,6.421,0,0,0,4.353,1.362,10.59,10.59,0,0,0,3.433-.549,3.278,3.278,0,0,1,3.15.23l1.8-6.972A3.928,3.928,0,0,0,29.532,5.1C28.736,4.194,27.232,3.716,25.056,3.663Zm-2.9,9.679c-.5,0-1.946-.319-1.7-1.416a1.547,1.547,0,0,1,.9-.991,5.275,5.275,0,0,1,3.2-.195,5.446,5.446,0,0,1,.743.212A3.026,3.026,0,0,1,22.154,13.342ZM72.689,5.025a6.421,6.421,0,0,0-4.353-1.362,11.363,11.363,0,0,0-3.61.531c-6.582,2.53-5.963,8.14-4,10.015a6.037,6.037,0,0,0,4.211,1.876,12.413,12.413,0,0,0,5.662-.619c.071-.159.478-1.769.725-2.6-.69.354-4.937,1.469-6.742.195a1.57,1.57,0,0,1-.619-1.752c.354.088.867.265,1.256.319a10.833,10.833,0,0,0,1.8.124,11.077,11.077,0,0,0,2.318-.23,8.229,8.229,0,0,0,1.964-.708A4.98,4.98,0,0,0,72.831,9.59a3.777,3.777,0,0,0,.832-1.823A3.07,3.07,0,0,0,72.689,5.025ZM69.522,7.892a1.547,1.547,0,0,1-.9.991,5.275,5.275,0,0,1-3.2.195c-.212-.035-.761-.177-1.044-.248a3.558,3.558,0,0,1,3.45-2.353C68.337,6.476,69.788,6.795,69.522,7.892ZM78.316,0a1.286,1.286,0,0,0-1.186.92h0L73.574,13.908v.018l-.531,1.911h4.8L82.191,0ZM60.2.142a3.327,3.327,0,0,0-2.53,1.168L52,7.98,50.04.142H45.086l4.618,17.2L64.833.142H60.2ZM11.838,0H4.282L0,15.837H2.46c1.469,0,2.548-.177,2.92-1.593l.708-2.672H8.476c8.352,0,8.971-4.831,9.237-5.786C17.889,5.167,18.509,0,11.838,0Zm1.274,5.556a3.592,3.592,0,0,1-3.68,2.371H7.078L8.334,3.291h2.477C13.2,3.274,13.271,4.972,13.112,5.556Z" transform="translate(893 16.27)" fill="#fff" />
	</g>
</svg>